<svg xmlns="http://www.w3.org/2000/svg" width="68" height="59" style=""><rect id="backgroundrect" width="100%" height="100%" x="0" y="0" fill="none" stroke="none"/><g class="currentLayer" style=""><title>Layer 1</title><path d="M35.728984446202844,3.9686306691742175 L67.72898484620285,55.96863066917422 C68.54900884620285,57.30116066917435 67.59030884620284,59.016820669174194 66.02566784620285,59.016820669174194 L2.0256678462028503,59.016820669174194 C0.46102644620285116,59.016820669174194 -0.49767335379714694,57.30116066917435 0.3223512462028496,55.96863066917422 L32.32235124620286,3.9686306691742175 C33.103319546202854,2.6995506691741866 34.948016146202846,2.6995506691741866 35.728984446202844,3.9686306691742175 zM34.02566784620285,8.83290066917425 L5.60479664620285,55.016820669174194 L62.446538846202856,55.016820669174194 L34.02566784620285,8.83290066917425 zM57.05465984620285,19.731810669174138 C56.107498846202844,20.3001006691743 54.878977846202844,19.992970669174156 54.310681846202854,19.04581066917399 C53.74238584620285,18.098650669174276 54.04951584620285,16.87013066917416 54.99667584620285,16.30183066917425 L64.99667584620285,10.301830669174251 C65.94383684620286,9.73354066917409 67.17235784620286,10.040670669174233 67.74065384620285,10.9878306691744 C68.30894984620285,11.934990669174113 68.00181984620285,13.16351066917423 67.05465984620285,13.731810669174138 L57.05465984620285,19.731810669174138 zM48.86395784620285,9.804660669174154 C48.428846846202845,10.81992066917428 47.25308884620286,11.290220669174232 46.237828846202845,10.855110669174337 C45.222569846202845,10.420000669173987 44.75226684620284,9.24424066917436 45.18737784620285,8.228980669174234 L48.18737784620285,1.2289806691742342 C48.622488846202856,0.2137206691741085 49.798246846202844,-0.2565793308258435 50.813506846202856,0.1785306691740516 C51.828765846202856,0.6136406691744015 52.29906884620286,1.7894006691740287 51.86395784620285,2.8046606691741545 L48.86395784620285,9.804660669174154 zM58.74282484620285,32.99672066917401 C57.64935684620285,32.840510669174364 56.889558846202846,31.82745066917414 57.04576884620285,30.733980669174343 C57.20197884620285,29.64051066917409 58.21504284620285,28.880710669174277 59.30851084620285,29.03692066917438 L66.30851084620285,30.03692066917438 C67.40197884620285,30.193130669174025 68.16177684620286,31.206190669174248 68.00556684620285,32.299660669174045 C67.84935684620285,33.3931306691743 66.83629284620285,34.15293066917411 65.74282484620285,33.99672066917401 L58.74282484620285,32.99672066917401 zM10.996676346202847,19.731810669174138 L0.9966763462028467,13.731810669174138 C-1.2899714537971505,12.359820669174042 0.7680115462028497,8.929850669174357 3.054659346202847,10.301830669174251 L13.054659346202854,16.30183066917425 C15.341307146202851,17.673820669174347 13.283324146202844,21.103790669174032 10.996676346202847,19.731810669174138 zM19.187377746202856,9.804660669174154 L16.187377746202856,2.8046606691741545 C15.136926346202856,0.35361066917403167 18.81350644620285,-1.2220693308258888 19.863957946202845,1.2289806691742342 L22.863957946202845,8.228980669174234 C23.914409346202845,10.680030669174357 20.23782924620285,12.255710669174277 19.187377746202856,9.804660669174154 zM9.308510546202854,32.99672066917401 L2.3085105462028537,33.99672066917401 C-0.33135475379715024,34.373840669174115 -0.8970401537971499,30.414040669174028 1.742825146202847,30.03692066917438 L8.742825146202847,29.03692066917438 C11.382690446202844,28.659800669174274 11.94837584620285,32.61960066917436 9.308510546202854,32.99672066917401 zM38.97541534620285,41.966570669174416 C39.75646394620286,41.185520669174366 41.022793846202845,41.185520669174366 41.80384244620285,41.966570669174416 C42.584891046202856,42.74762066917401 42.584891046202856,44.01395066917439 41.80384244620285,44.79499066917424 C37.50807524620285,49.090760669174415 30.54326044620285,49.090760669174415 26.24749324620285,44.79499066917424 C25.466444646202845,44.01395066917439 25.466444646202845,42.74762066917401 26.24749324620285,41.966570669174416 C27.028541846202856,41.185520669174366 28.294871746202844,41.185520669174366 29.07592034620285,41.966570669174416 C31.809590446202847,44.700240669174036 36.24174524620285,44.700240669174036 38.97541534620285,41.966570669174416 zM29.02566784620285,36.016820669174194 C27.368813646202852,36.016820669174194 26.02566784620285,34.673670669174044 26.02566784620285,33.016820669174194 C26.02566784620285,31.359970669174345 27.368813646202852,30.016820669174194 29.02566784620285,30.016820669174194 C30.68252204620285,30.016820669174194 32.02566784620285,31.359970669174345 32.02566784620285,33.016820669174194 C32.02566784620285,34.673670669174044 30.68252204620285,36.016820669174194 29.02566784620285,36.016820669174194 zM39.02566784620285,36.016820669174194 C37.36881364620285,36.016820669174194 36.02566784620285,34.673670669174044 36.02566784620285,33.016820669174194 C36.02566784620285,31.359970669174345 37.36881364620285,30.016820669174194 39.02566784620285,30.016820669174194 C40.68252204620285,30.016820669174194 42.02566784620285,31.359970669174345 42.02566784620285,33.016820669174194 C42.02566784620285,34.673670669174044 40.68252204620285,36.016820669174194 39.02566784620285,36.016820669174194 z" id="svg_1" class=""/></g></svg>